<svg xmlns="http://www.w3.org/2000/svg" width="128" height="128" viewBox="0 0 128 128">
  <defs>
    <linearGradient id="shirt" x1="0" y1="0" x2="0" y2="1">
      <stop offset="0%" stop-color="#d9efc8"/>
      <stop offset="100%" stop-color="#8fc88d"/>
    </linearGradient>
  </defs>
  <ellipse cx="64" cy="112" rx="28" ry="10" fill="#0d1117" fill-opacity="0.24"/>
  <circle cx="64" cy="34" r="18" fill="#f0e5d6"/>
  <path d="M42 62c6-9 16-14 22-14s16 5 22 14l-6 36H48z" fill="url(#shirt)" stroke="#1d242b" stroke-width="3" stroke-linejoin="round"/>
  <path d="M52 63h24l4 13H48z" fill="#ffffff" fill-opacity="0.18"/>
  <path d="M49 98h30l8 14H41z" fill="#1d242b" fill-opacity="0.24"/>
  <path d="M46 66l-8 18M82 66l8 18" stroke="#1d242b" stroke-width="4" stroke-linecap="round"/>
  <path d="M54 108l-4 12M74 108l4 12" stroke="#1d242b" stroke-width="5" stroke-linecap="round"/>
  <circle cx="58" cy="32" r="2.5" fill="#202630"/>
  <circle cx="70" cy="32" r="2.5" fill="#202630"/>
  <path d="M58 42c4 2.5 8 2.5 12 0" fill="none" stroke="#c98b6d" stroke-width="2.5" stroke-linecap="round"/>
</svg>
