<svg xmlns="http://www.w3.org/2000/svg" width="128" height="128" viewBox="0 0 128 128">
  <defs>
    <linearGradient id="jacket" x1="0" y1="0" x2="0" y2="1">
      <stop offset="0%" stop-color="#f2c27b"/>
      <stop offset="100%" stop-color="#cf8d4c"/>
    </linearGradient>
  </defs>
  <ellipse cx="64" cy="112" rx="30" ry="10" fill="#0d1117" fill-opacity="0.26"/>
  <circle cx="64" cy="34" r="18" fill="#efe4d4"/>
  <path d="M40 62l24-12 24 12-7 38H47z" fill="url(#jacket)" stroke="#1c232b" stroke-width="3" stroke-linejoin="round"/>
  <path d="M50 92h28l10 16H40z" fill="#1c232b" fill-opacity="0.24"/>
  <rect x="34" y="74" width="18" height="18" rx="2" fill="#d7a04e" stroke="#1c232b" stroke-width="2"/>
  <rect x="78" y="72" width="16" height="14" rx="2" fill="#d7a04e" stroke="#1c232b" stroke-width="2"/>
  <path d="M44 66l-8 18M84 66l8 18" stroke="#1c232b" stroke-width="4" stroke-linecap="round"/>
  <path d="M54 108l-4 12M74 108l4 12" stroke="#1c232b" stroke-width="5" stroke-linecap="round"/>
  <circle cx="58" cy="33" r="2.5" fill="#202630"/>
  <circle cx="70" cy="33" r="2.5" fill="#202630"/>
  <path d="M58 42c4 2.5 8 2.5 12 0" fill="none" stroke="#c98b6d" stroke-width="2.5" stroke-linecap="round"/>
</svg>
