<svg xmlns="http://www.w3.org/2000/svg" width="128" height="128" viewBox="0 0 128 128">
  <defs>
    <linearGradient id="hood" x1="0" y1="0" x2="0" y2="1">
      <stop offset="0%" stop-color="#d26b59"/>
      <stop offset="100%" stop-color="#7f3a31"/>
    </linearGradient>
  </defs>
  <ellipse cx="64" cy="112" rx="30" ry="10" fill="#0d1117" fill-opacity="0.28"/>
  <path d="M64 16c16 0 26 12 26 27S80 65 64 65 38 54 38 43 48 16 64 16z" fill="#342b31"/>
  <path d="M46 36c2-11 10-18 18-18s16 7 18 18c-5-3-12-6-18-6s-13 3-18 6z" fill="url(#hood)"/>
  <path d="M42 63l22-11 22 11-7 38H49z" fill="url(#hood)" stroke="#1c232b" stroke-width="3" stroke-linejoin="round"/>
  <path d="M48 63h32v14H48z" fill="#1c232b" fill-opacity="0.22"/>
  <rect x="34" y="76" width="16" height="14" rx="2" fill="#5a4038" stroke="#1c232b" stroke-width="2"/>
  <path d="M44 67l-8 18M84 67l8 18" stroke="#1c232b" stroke-width="4" stroke-linecap="round"/>
  <path d="M54 108l-4 12M74 108l4 12" stroke="#1c232b" stroke-width="5" stroke-linecap="round"/>
  <circle cx="58" cy="40" r="2.5" fill="#ffb09b"/>
  <circle cx="70" cy="40" r="2.5" fill="#ffb09b"/>
  <path d="M58 49c4 2 8 2 12 0" fill="none" stroke="#f08d79" stroke-width="2.2" stroke-linecap="round"/>
</svg>
